<svg width="50" height="50" viewBox="0 0 50 50" fill="none" xmlns="http://www.w3.org/2000/svg">
<circle cx="25" cy="25" r="25" fill="url(#paint0_linear_8_111)"/>
<path d="M22.2812 30.7188C21.6458 31.1094 20.8646 31.3047 19.9375 31.3047C18.4115 31.3047 17.1615 30.776 16.1875 29.7188C15.1719 28.6562 14.6641 27.2031 14.6641 25.3594C14.6641 23.4948 15.1771 22 16.2031 20.875C17.2292 19.75 18.5859 19.1875 20.2734 19.1875C21.737 19.1875 22.9115 19.5599 23.7969 20.3047C24.6875 21.0443 25.1979 21.9688 25.3281 23.0781H22.9609C22.7786 22.2917 22.3333 21.7422 21.625 21.4297C21.2292 21.2578 20.7891 21.1719 20.3047 21.1719C19.3776 21.1719 18.6146 21.5234 18.0156 22.2266C17.4219 22.9245 17.125 23.9766 17.125 25.3828C17.125 26.7995 17.4479 27.8021 18.0938 28.3906C18.7396 28.9792 19.474 29.2734 20.2969 29.2734C21.1042 29.2734 21.7656 29.0417 22.2812 28.5781C22.7969 28.1094 23.1146 27.4974 23.2344 26.7422H20.5703V24.8203H25.3672V31H23.7734L23.5312 29.5625C23.0677 30.1094 22.651 30.4948 22.2812 30.7188ZM32.7656 31.3203C31.1198 31.3203 29.862 30.8724 28.9922 29.9766C27.8255 28.8776 27.2422 27.2943 27.2422 25.2266C27.2422 23.1172 27.8255 21.5339 28.9922 20.4766C29.862 19.5807 31.1198 19.1328 32.7656 19.1328C34.4115 19.1328 35.6693 19.5807 36.5391 20.4766C37.7005 21.5339 38.2812 23.1172 38.2812 25.2266C38.2812 27.2943 37.7005 28.8776 36.5391 29.9766C35.6693 30.8724 34.4115 31.3203 32.7656 31.3203ZM35.0391 28.2266C35.5964 27.5234 35.875 26.5234 35.875 25.2266C35.875 23.9349 35.5938 22.9375 35.0312 22.2344C34.474 21.526 33.7188 21.1719 32.7656 21.1719C31.8125 21.1719 31.0521 21.5234 30.4844 22.2266C29.9167 22.9297 29.6328 23.9297 29.6328 25.2266C29.6328 26.5234 29.9167 27.5234 30.4844 28.2266C31.0521 28.9297 31.8125 29.2812 32.7656 29.2812C33.7188 29.2812 34.4766 28.9297 35.0391 28.2266Z" fill="white"/>
<defs>
<linearGradient id="paint0_linear_8_111" x1="25" y1="0" x2="25" y2="50" gradientUnits="userSpaceOnUse">
<stop stop-color="#BC10D8"/>
<stop offset="1" stop-color="#5000FA" stop-opacity="0.93"/>
</linearGradient>
</defs>
</svg>
